<?xml version="1.0" encoding="utf-8"?>
<!-- Generator: Adobe Illustrator 24.1.2, SVG Export Plug-In . SVG Version: 6.00 Build 0)  -->
<svg id="my-svg-logo" xmlns="http://www.w3.org/2000/svg" xmlns:xlink="http://www.w3.org/1999/xlink" x="0px" y="0px"
     viewBox="0 0 831.97 701.89" style="enable-background:new 0 0 831.97 701.89;" xml:space="preserve">
<style type="text/css">
	.st0{fill:url(#gradientMap);}
    .st1{fill:url(#gradientMap);}
    .st2{fill:url(#gradientMap);}
    .st3{fill:url(#gradientMap);}
    .st4{fill:url(#gradientMap);}
    .st5{fill:url(#gradientMap);}
    .st6{fill:url(#gradientMap);}
    .st7{fill:url(#gradientMap);}
    .st8{fill:url(#gradientMap);}
    .st9{fill:#E50E0E;}
    .st10{fill:url(#gradientMap);}
    .st11{fill:url(#gradientMap);}
    .st12{fill:url(#gradientMap);}
    .st13{fill:url(#gradientMap);}
    .st14{fill:url(#gradientMap);}
    .st15{fill:url(#gradientMap);}
    .st16{fill:url(#gradientMap);}
</style>
    <g>
	 <defs>
            <linearGradient id="gradientMap">

                <stop id="stop1" class="stop1" offset="0%" stop-color="#FFF9AF">
                    <animate attributeName="stop-color" values="#FFF9AF; #F9CE8E; #FFF9AF" dur="5s" repeatCount="indefinite"></animate>
                </stop>
                <stop id="stop2" class="stop2" offset="100%" stop-color="#6D4729">
                    <animate attributeName="stop-color" values="#6D4729; #FFF9AF; #6D4729" dur="5s" repeatCount="indefinite"></animate>
                </stop>
            </linearGradient>
        </defs>
        <linearGradient id="SVGID_1_" gradientUnits="userSpaceOnUse" x1="54.3635" y1="228.9661" x2="500.4251" y2="228.9661">
	<stop  offset="0" style="stop-color:#6D4729"/>
            <stop  offset="0.1819" style="stop-color:#F9CE8E"/>
            <stop  offset="0.4459" style="stop-color:#FFF9AF"/>
            <stop  offset="0.7166" style="stop-color:#EEC588"/>
            <stop  offset="1" style="stop-color:#6D4729"/>
</linearGradient>
        <path class="st0" d="M171.5,308.89c4.61-44.48,31.63-118.53,153.23-158.01c28.99-9.41,59.67-12.82,89.9-8.94
		c44.14,5.68,97.41,27.63,103.74,99.5c0.16,0.58,11.81,102.89-137,168c0,0-130.93,53.78-189.83-25.13
		C175.44,362.74,168.72,335.67,171.5,308.89z"/>
        <defs>
            <linearGradient id="gradientMap">

                <stop id="stop1" class="stop1" offset="0%" stop-color="#FFF9AF">
                    <animate attributeName="stop-color" values="#FFF9AF; #F9CE8E; #FFF9AF" dur="5s" repeatCount="indefinite"></animate>
                </stop>
                <stop id="stop2" class="stop2" offset="100%" stop-color="#6D4729">
                    <animate attributeName="stop-color" values="#6D4729; #FFF9AF; #6D4729" dur="5s" repeatCount="indefinite"></animate>
                </stop>
            </linearGradient>
        </defs>
        <linearGradient id="SVGID_1_" gradientUnits="userSpaceOnUse" x1="54.3635" y1="228.9661" x2="500.4251" y2="228.9661">
	<stop  offset="0" style="stop-color:#6D4729"/>
            <stop  offset="0.1819" style="stop-color:#F9CE8E"/>
            <stop  offset="0.4459" style="stop-color:#FFF9AF"/>
            <stop  offset="0.7166" style="stop-color:#EEC588"/>
            <stop  offset="1" style="stop-color:#6D4729"/>
</linearGradient>
        <path class="st1" d="M440.37,483.44c16.4,39.83,77.14,45.26,122,22c54-28,83-94,58.5-131.5c-33.92-51.91-115.8-18.71-138.5,0.5
		C456.37,396.44,419.37,432.44,440.37,483.44z"/>
        <defs>
            <linearGradient id="gradientMap">

                <stop id="stop1" class="stop1" offset="0%" stop-color="#FFF9AF">
                    <animate attributeName="stop-color" values="#FFF9AF; #F9CE8E; #FFF9AF" dur="5s" repeatCount="indefinite"></animate>
                </stop>
                <stop id="stop2" class="stop2" offset="100%" stop-color="#6D4729">
                    <animate attributeName="stop-color" values="#6D4729; #FFF9AF; #6D4729" dur="5s" repeatCount="indefinite"></animate>
                </stop>
            </linearGradient>
        </defs>
        <linearGradient id="SVGID_1_" gradientUnits="userSpaceOnUse" x1="54.3635" y1="228.9661" x2="500.4251" y2="228.9661">
	<stop  offset="0" style="stop-color:#6D4729"/>
            <stop  offset="0.1819" style="stop-color:#F9CE8E"/>
            <stop  offset="0.4459" style="stop-color:#FFF9AF"/>
            <stop  offset="0.7166" style="stop-color:#EEC588"/>
            <stop  offset="1" style="stop-color:#6D4729"/>
</linearGradient>
        <path class="st2" d="M545.51,167.98c-30.04,20.38-26.55,66.9-3.64,102.96c33.73,53.09,99.66,70.49,127,26
		c27.37-44.53-8.09-99.02-27.42-114.08C619.31,165.62,583.97,141.89,545.51,167.98z"/>
        <defs>
            <linearGradient id="gradientMap">

                <stop id="stop1" class="stop1" offset="0%" stop-color="#FFF9AF">
                    <animate attributeName="stop-color" values="#FFF9AF; #F9CE8E; #FFF9AF" dur="5s" repeatCount="indefinite"></animate>
                </stop>
                <stop id="stop2" class="stop2" offset="100%" stop-color="#6D4729">
                    <animate attributeName="stop-color" values="#6D4729; #FFF9AF; #6D4729" dur="5s" repeatCount="indefinite"></animate>
                </stop>
            </linearGradient>
        </defs>
        <linearGradient id="SVGID_1_" gradientUnits="userSpaceOnUse" x1="54.3635" y1="228.9661" x2="500.4251" y2="228.9661">
	<stop  offset="0" style="stop-color:#6D4729"/>
            <stop  offset="0.1819" style="stop-color:#F9CE8E"/>
            <stop  offset="0.4459" style="stop-color:#FFF9AF"/>
            <stop  offset="0.7166" style="stop-color:#EEC588"/>
            <stop  offset="1" style="stop-color:#6D4729"/>
</linearGradient>
        <path class="st3" d="M651.61,470.11c9.48,25.88,52.1,26.7,84.47,10.24c40.03-20.36,62.24-64.15,45.45-88.63
		c-25.04-36.5-78.16-9.28-96.78,5.15C667.42,410.29,638.36,433.95,651.61,470.11z"/>
        <defs>
            <linearGradient id="gradientMap">

                <stop id="stop1" class="stop1" offset="0%" stop-color="#FFF9AF">
                    <animate attributeName="stop-color" values="#FFF9AF; #F9CE8E; #FFF9AF" dur="5s" repeatCount="indefinite"></animate>
                </stop>
                <stop id="stop2" class="stop2" offset="100%" stop-color="#6D4729">
                    <animate attributeName="stop-color" values="#6D4729; #FFF9AF; #6D4729" dur="5s" repeatCount="indefinite"></animate>
                </stop>
            </linearGradient>
        </defs>
        <linearGradient id="SVGID_1_" gradientUnits="userSpaceOnUse" x1="54.3635" y1="228.9661" x2="500.4251" y2="228.9661">
	<stop  offset="0" style="stop-color:#6D4729"/>
            <stop  offset="0.1819" style="stop-color:#F9CE8E"/>
            <stop  offset="0.4459" style="stop-color:#FFF9AF"/>
            <stop  offset="0.7166" style="stop-color:#EEC588"/>
            <stop  offset="1" style="stop-color:#6D4729"/>
</linearGradient>
        <path class="st4" d="M398.87,108.94c-8.4,20.16,29.26,39.9,65,44.22c44.21,5.35,90.2-8.05,89.74-28.12
		c-0.77-32.78-63.72-44.31-86.74-43.04C445.25,83.2,408.87,84.94,398.87,108.94z"/>
        <defs>
            <linearGradient id="gradientMap">

                <stop id="stop1" class="stop1" offset="0%" stop-color="#FFF9AF">
                    <animate attributeName="stop-color" values="#FFF9AF; #F9CE8E; #FFF9AF" dur="5s" repeatCount="indefinite"></animate>
                </stop>
                <stop id="stop2" class="stop2" offset="100%" stop-color="#6D4729">
                    <animate attributeName="stop-color" values="#6D4729; #FFF9AF; #6D4729" dur="5s" repeatCount="indefinite"></animate>
                </stop>
            </linearGradient>
        </defs>
        <linearGradient id="SVGID_1_" gradientUnits="userSpaceOnUse" x1="54.3635" y1="228.9661" x2="500.4251" y2="228.9661">
	<stop  offset="0" style="stop-color:#6D4729"/>
            <stop  offset="0.1819" style="stop-color:#F9CE8E"/>
            <stop  offset="0.4459" style="stop-color:#FFF9AF"/>
            <stop  offset="0.7166" style="stop-color:#EEC588"/>
            <stop  offset="1" style="stop-color:#6D4729"/>
</linearGradient>
        <path class="st5" d="M199.87,489.94c-10.22,28.35,41.26,56.65,83,62c51.63,6.62,108.09-14.51,105.71-42.46
		c-3.71-43.54-73.61-58.45-100.67-58.49C256.87,450.94,212.04,456.19,199.87,489.94z"/>
        <defs>
            <linearGradient id="gradientMap">

                <stop id="stop1" class="stop1" offset="0%" stop-color="#FFF9AF">
                    <animate attributeName="stop-color" values="#FFF9AF; #F9CE8E; #FFF9AF" dur="5s" repeatCount="indefinite"></animate>
                </stop>
                <stop id="stop2" class="stop2" offset="100%" stop-color="#6D4729">
                    <animate attributeName="stop-color" values="#6D4729; #FFF9AF; #6D4729" dur="5s" repeatCount="indefinite"></animate>
                </stop>
            </linearGradient>
        </defs>
        <linearGradient id="SVGID_1_" gradientUnits="userSpaceOnUse" x1="54.3635" y1="228.9661" x2="500.4251" y2="228.9661">
	<stop  offset="0" style="stop-color:#6D4729"/>
            <stop  offset="0.1819" style="stop-color:#F9CE8E"/>
            <stop  offset="0.4459" style="stop-color:#FFF9AF"/>
            <stop  offset="0.7166" style="stop-color:#EEC588"/>
            <stop  offset="1" style="stop-color:#6D4729"/>
</linearGradient>
        <path class="st6" d="M312.72,622.41c-3.9,24.28,29.86,42.18,63.81,41.68c40.89-0.6,77.29-24.61,74.08-50.21
		c-4.79-38.18-59.12-38.41-80.24-34.73C350.73,582.58,318.04,589.33,312.72,622.41z"/>
        <defs>
            <linearGradient id="gradientMap">

                <stop id="stop1" class="stop1" offset="0%" stop-color="#FFF9AF">
                    <animate attributeName="stop-color" values="#FFF9AF; #F9CE8E; #FFF9AF" dur="5s" repeatCount="indefinite"></animate>
                </stop>
                <stop id="stop2" class="stop2" offset="100%" stop-color="#6D4729">
                    <animate attributeName="stop-color" values="#6D4729; #FFF9AF; #6D4729" dur="5s" repeatCount="indefinite"></animate>
                </stop>
            </linearGradient>
        </defs>
        <linearGradient id="SVGID_1_" gradientUnits="userSpaceOnUse" x1="54.3635" y1="228.9661" x2="500.4251" y2="228.9661">
	<stop  offset="0" style="stop-color:#6D4729"/>
            <stop  offset="0.1819" style="stop-color:#F9CE8E"/>
            <stop  offset="0.4459" style="stop-color:#FFF9AF"/>
            <stop  offset="0.7166" style="stop-color:#EEC588"/>
            <stop  offset="1" style="stop-color:#6D4729"/>
</linearGradient>
        <path class="st7" d="M101.87,339.94c0,0-30,14-5,74c0,0,41,71,79,34c0,0,25-29-12-82C163.87,365.94,129.87,322.94,101.87,339.94z"
        />
        <defs>
            <linearGradient id="gradientMap">

                <stop id="stop1" class="stop1" offset="0%" stop-color="#FFF9AF">
                    <animate attributeName="stop-color" values="#FFF9AF; #F9CE8E; #FFF9AF" dur="5s" repeatCount="indefinite"></animate>
                </stop>
                <stop id="stop2" class="stop2" offset="100%" stop-color="#6D4729">
                    <animate attributeName="stop-color" values="#6D4729; #FFF9AF; #6D4729" dur="5s" repeatCount="indefinite"></animate>
                </stop>
            </linearGradient>
        </defs>
        <linearGradient id="SVGID_1_" gradientUnits="userSpaceOnUse" x1="54.3635" y1="228.9661" x2="500.4251" y2="228.9661">
	<stop  offset="0" style="stop-color:#6D4729"/>
            <stop  offset="0.1819" style="stop-color:#F9CE8E"/>
            <stop  offset="0.4459" style="stop-color:#FFF9AF"/>
            <stop  offset="0.7166" style="stop-color:#EEC588"/>
            <stop  offset="1" style="stop-color:#6D4729"/>
</linearGradient>
        <path class="st8" d="M118.87,496.94c9.57,24.61,1.17,47.92-10,53c-11,5-30.43-11.07-36-29c-9-29-0.6-45.61,11.73-50.25
		C99.87,464.94,111.87,478.94,118.87,496.94z"/>
        <path class="st9" d="M634.87,136.94"/>
        <defs>
            <linearGradient id="gradientMap">

                <stop id="stop1" class="stop1" offset="0%" stop-color="#FFF9AF">
                    <animate attributeName="stop-color" values="#FFF9AF; #F9CE8E; #FFF9AF" dur="5s" repeatCount="indefinite"></animate>
                </stop>
                <stop id="stop2" class="stop2" offset="100%" stop-color="#6D4729">
                    <animate attributeName="stop-color" values="#6D4729; #FFF9AF; #6D4729" dur="5s" repeatCount="indefinite"></animate>
                </stop>
            </linearGradient>
        </defs>
        <linearGradient id="SVGID_1_" gradientUnits="userSpaceOnUse" x1="54.3635" y1="228.9661" x2="500.4251" y2="228.9661">
	<stop  offset="0" style="stop-color:#6D4729"/>
            <stop  offset="0.1819" style="stop-color:#F9CE8E"/>
            <stop  offset="0.4459" style="stop-color:#FFF9AF"/>
            <stop  offset="0.7166" style="stop-color:#EEC588"/>
            <stop  offset="1" style="stop-color:#6D4729"/>
</linearGradient>
        <path class="st10" d="M616.87,73.94h4.01C618.36,73.85,616.87,73.94,616.87,73.94z"/>
        <defs>
            <linearGradient id="gradientMap">

                <stop id="stop1" class="stop1" offset="0%" stop-color="#FFF9AF">
                    <animate attributeName="stop-color" values="#FFF9AF; #F9CE8E; #FFF9AF" dur="5s" repeatCount="indefinite"></animate>
                </stop>
                <stop id="stop2" class="stop2" offset="100%" stop-color="#6D4729">
                    <animate attributeName="stop-color" values="#6D4729; #FFF9AF; #6D4729" dur="5s" repeatCount="indefinite"></animate>
                </stop>
            </linearGradient>
        </defs>
        <linearGradient id="SVGID_1_" gradientUnits="userSpaceOnUse" x1="54.3635" y1="228.9661" x2="500.4251" y2="228.9661">
	<stop  offset="0" style="stop-color:#6D4729"/>
            <stop  offset="0.1819" style="stop-color:#F9CE8E"/>
            <stop  offset="0.4459" style="stop-color:#FFF9AF"/>
            <stop  offset="0.7166" style="stop-color:#EEC588"/>
            <stop  offset="1" style="stop-color:#6D4729"/>
</linearGradient>
        <path class="st11" d="M362.71,51.53c4.52-7.41,16.05-17.12,45.16-12.59c0,0,23,6,5,22c0,0-16,11-38,9c0,0-4.36-1.01-8.42-3.4
		C361.21,63.44,359.54,56.74,362.71,51.53z"/>
        <defs>
            <linearGradient id="gradientMap">

                <stop id="stop1" class="stop1" offset="0%" stop-color="#FFF9AF">
                    <animate attributeName="stop-color" values="#FFF9AF; #F9CE8E; #FFF9AF" dur="5s" repeatCount="indefinite"></animate>
                </stop>
                <stop id="stop2" class="stop2" offset="100%" stop-color="#6D4729">
                    <animate attributeName="stop-color" values="#6D4729; #FFF9AF; #6D4729" dur="5s" repeatCount="indefinite"></animate>
                </stop>
            </linearGradient>
        </defs>
        <linearGradient id="SVGID_1_" gradientUnits="userSpaceOnUse" x1="54.3635" y1="228.9661" x2="500.4251" y2="228.9661">
	<stop  offset="0" style="stop-color:#6D4729"/>
            <stop  offset="0.1819" style="stop-color:#F9CE8E"/>
            <stop  offset="0.4459" style="stop-color:#FFF9AF"/>
            <stop  offset="0.7166" style="stop-color:#EEC588"/>
            <stop  offset="1" style="stop-color:#6D4729"/>
</linearGradient>
        <path class="st12" d="M593.87,86.94c0,0,14-30,63.16-0.65c7.6,4.54,13.55,11.49,17.58,19.38c4.79,9.36,7.12,21.47-5.75,29.53
		c-4.88,3.05-10.57,4.52-16.32,4.6c-11.91,0.16-34.48-3.47-53.79-29.27c-2.3-3.07-4.1-6.52-5.13-10.22
		C592.53,96.45,592.01,91.59,593.87,86.94z"/>
        <defs>
            <linearGradient id="gradientMap">

                <stop id="stop1" class="stop1" offset="0%" stop-color="#FFF9AF">
                    <animate attributeName="stop-color" values="#FFF9AF; #F9CE8E; #FFF9AF" dur="5s" repeatCount="indefinite"></animate>
                </stop>
                <stop id="stop2" class="stop2" offset="100%" stop-color="#6D4729">
                    <animate attributeName="stop-color" values="#6D4729; #FFF9AF; #6D4729" dur="5s" repeatCount="indefinite"></animate>
                </stop>
            </linearGradient>
        </defs>
        <linearGradient id="SVGID_1_" gradientUnits="userSpaceOnUse" x1="54.3635" y1="228.9661" x2="500.4251" y2="228.9661">
	<stop  offset="0" style="stop-color:#6D4729"/>
            <stop  offset="0.1819" style="stop-color:#F9CE8E"/>
            <stop  offset="0.4459" style="stop-color:#FFF9AF"/>
            <stop  offset="0.7166" style="stop-color:#EEC588"/>
            <stop  offset="1" style="stop-color:#6D4729"/>
</linearGradient>
        <path class="st13" d="M59.25,281.07c2.9-2.66,6.22-4.97,9.72-5.96c6.34-1.8,12.72,2.47,13.79,8.97c1.06,6.39,0.56,17.3-9.38,30.47
		c-3.41,4.52-7.93,8.13-13.22,10.12c-6.62,2.49-14.69,2.69-15.28-10.73c0,0-0.33-1.97,0.33-6.29
		C46.76,297.48,51.67,288.03,59.25,281.07z"/>
        <defs>
            <linearGradient id="gradientMap">

                <stop id="stop1" class="stop1" offset="0%" stop-color="#FFF9AF">
                    <animate attributeName="stop-color" values="#FFF9AF; #F9CE8E; #FFF9AF" dur="5s" repeatCount="indefinite"></animate>
                </stop>
                <stop id="stop2" class="stop2" offset="100%" stop-color="#6D4729">
                    <animate attributeName="stop-color" values="#6D4729; #FFF9AF; #6D4729" dur="5s" repeatCount="indefinite"></animate>
                </stop>
            </linearGradient>
        </defs>
        <linearGradient id="SVGID_1_" gradientUnits="userSpaceOnUse" x1="54.3635" y1="228.9661" x2="500.4251" y2="228.9661">
	<stop  offset="0" style="stop-color:#6D4729"/>
            <stop  offset="0.1819" style="stop-color:#F9CE8E"/>
            <stop  offset="0.4459" style="stop-color:#FFF9AF"/>
            <stop  offset="0.7166" style="stop-color:#EEC588"/>
            <stop  offset="1" style="stop-color:#6D4729"/>
</linearGradient>
        <path class="st14" d="M119.4,237.93c3.96-7.46,29.7-53.23,59.13-41.19c5.21,2.13,9.18,6.58,10.64,12.03
		c3.05,11.39,3.36,34.77-26.3,67.18c0,0-37.65,33.37-48.83,2.76c-1.81-4.95-2.4-10.25-2.04-15.51c0.42-6.09,1.81-15.24,6.11-22.96
		C118.54,239.47,118.99,238.71,119.4,237.93z"/>
        <path class="st9" d="M86.87,227.94"/>
        <defs>
            <linearGradient id="gradientMap">

                <stop id="stop1" class="stop1" offset="0%" stop-color="#FFF9AF">
                    <animate attributeName="stop-color" values="#FFF9AF; #F9CE8E; #FFF9AF" dur="5s" repeatCount="indefinite"></animate>
                </stop>
                <stop id="stop2" class="stop2" offset="100%" stop-color="#6D4729">
                    <animate attributeName="stop-color" values="#6D4729; #FFF9AF; #6D4729" dur="5s" repeatCount="indefinite"></animate>
                </stop>
            </linearGradient>
        </defs>
        <linearGradient id="SVGID_1_" gradientUnits="userSpaceOnUse" x1="54.3635" y1="228.9661" x2="500.4251" y2="228.9661">
	<stop  offset="0" style="stop-color:#6D4729"/>
            <stop  offset="0.1819" style="stop-color:#F9CE8E"/>
            <stop  offset="0.4459" style="stop-color:#FFF9AF"/>
            <stop  offset="0.7166" style="stop-color:#EEC588"/>
            <stop  offset="1" style="stop-color:#6D4729"/>
</linearGradient>
        <path class="st15" d="M231.38,161.09c-3.99-4.68-4.47-11.42-1.6-16.86c6.76-12.82,27.24-39.98,81.09-45.29c0,0,36-3,29,24
		c0,0-7,24-58,43C281.87,165.94,244.94,177.02,231.38,161.09z"/>
        <defs>
            <linearGradient id="gradientMap">

                <stop id="stop1" class="stop1" offset="0%" stop-color="#FFF9AF">
                    <animate attributeName="stop-color" values="#FFF9AF; #F9CE8E; #FFF9AF" dur="5s" repeatCount="indefinite"></animate>
                </stop>
                <stop id="stop2" class="stop2" offset="100%" stop-color="#6D4729">
                    <animate attributeName="stop-color" values="#6D4729; #FFF9AF; #6D4729" dur="5s" repeatCount="indefinite"></animate>
                </stop>
            </linearGradient>
        </defs>
        <linearGradient id="SVGID_1_" gradientUnits="userSpaceOnUse" x1="54.3635" y1="228.9661" x2="500.4251" y2="228.9661">
	<stop  offset="0" style="stop-color:#6D4729"/>
            <stop  offset="0.1819" style="stop-color:#F9CE8E"/>
            <stop  offset="0.4459" style="stop-color:#FFF9AF"/>
            <stop  offset="0.7166" style="stop-color:#EEC588"/>
            <stop  offset="1" style="stop-color:#6D4729"/>
</linearGradient>
        <path class="st16" d="M155.57,154.35c1.8-5.48,7.83-18.63,26.3-29.41c0,0,17-9,17,6c0,0-2,15-22,28c0,0-15.94,10.36-20.78,1.91
		C154.96,158.89,154.86,156.51,155.57,154.35z"/>
</g>
</svg>